<svg id="Layer_1" data-name="Layer 1" xmlns="http://www.w3.org/2000/svg" viewBox="0 0 600 600"><defs><style>.cls-1{fill:#fbae48;}.cls-2{fill:#191345;}</style></defs><circle class="cls-1" cx="300" cy="300" r="272"/><path class="cls-2" d="M508.64,270c-5-45.07-65.11-58.82-101.82-59.18-56.11-.54-110.69,12.35-162.72,32.82-15.28,6-62,27-65.67,30.66a.2.2,0,0,1-.35-.06c-1-2.3-7.39-12-14.36-12.61-4.18-.37-68.66,7.46-87.66,10.28-2.38.35-2.56,4.48-1.16,5.82,14.57,14,50.84,38.19,52.68,38.8-11.81,15.69-26.84,28.72-37.44,45.36-1,1.63.11,5.59,2.51,5.37,19.12-1.76,83.62-9.45,87.59-10.79,7.14-2.42,11.16-14.92,11-16.07,0,0,0,0,0,0,14.29,4.94,30.9,9.11,45.63,12.5A423.82,423.82,0,0,0,283,360.85q11.63,1.33,23.31,2c3.63.21,7.24.46,10.87.5,2.65,0,4-.32,5.14,2.66.69,1.75,1.52,3.45,2.37,5.13a38.1,38.1,0,0,0,4.15,6.69c2.94,3.65,7.1,5.24,11.72,5.3,19.82.3,76.57-7.51,81.73-11.94,5.36-4.61,5-13.62,6.43-19.75l.06-.28c.17-1,15.52-4.55,17.09-5.11a142.94,142.94,0,0,0,22.23-9.8C492,323,511.86,298.83,508.64,270Z"/></svg>