<?xml version="1.0" encoding="utf-8"?>
<!-- Generator: Adobe Illustrator 16.0.0, SVG Export Plug-In . SVG Version: 6.00 Build 0)  -->
<!DOCTYPE svg PUBLIC "-//W3C//DTD SVG 1.1//EN" "http://www.w3.org/Graphics/SVG/1.1/DTD/svg11.dtd">
<svg version="1.1" id="Layer_1" xmlns="http://www.w3.org/2000/svg" xmlns:xlink="http://www.w3.org/1999/xlink" x="0px" y="0px"
	 width="702.189px" height="565.873px" viewBox="0 0 702.189 565.873" enable-background="new 0 0 702.189 565.873"
	 xml:space="preserve">
<g id="Scene_x2F_Wireframe">
	<path id="Twisted-Leaf" fill="#EEF1F5" d="M677.415,143.334c-0.533-0.388-1.799-0.525-2.388-0.642
		c-2.447-0.482-4.969-0.692-7.464-0.692c-7.692,0.012-15.511,0.767-23.076,2.074c-4.804,0.83-10.61,3.622-15.389,2.105
		c-8.324-2.642-16.737-2.512-24.636,1.26c-7.221,3.449-12.702,10-15.9,17.079c-0.482,1.068-2.441,5.001-2.995,7.652
		c-0.237,0.542-0.465,1.088-0.67,1.642c-0.583,1.572-1.104,3.173-1.59,4.776c-0.208,0.684-0.729,2.194-0.11,2.486
		c-0.989,1.827-1.866,3.709-2.598,5.652c-2.125,5.651-4.448,11.851-5.194,17.841c-0.277,2.218-0.287,4.449-0.03,6.671
		c0.127,1.098,0.074,3.307,0.818,4.142c1.581,1.772,2.393-0.708,2.214-1.89c-1.36-9.006,1.267-17.464,4.381-25.93
		c2.013-5.475,5.321-10.483,9.027-15.019c2.999-3.671,6.216-6.562,10.327-8.997c5.027-2.977,10.402-5.383,15.729-7.797
		c3.502-1.588,7.009-3.134,10.609-4.502c0.801-0.305,2.061-1.085,2.948-1.088c1.877-0.007,4.537,1.379,6.351,1.894
		c5.964,1.696,12.005,3.867,18.168,4.732c3.954,0.556,7.658-0.07,11.355-1.387c0.378-0.134,1.012-0.48,1.787-0.974
		c2.745-1.056,5.342-2.385,7.604-4.302c1.303-1.105,2.484-2.533,3.562-3.839c0.322-0.391,0.466-0.838,0.471-1.264
		c0.244-0.128,0.406-0.277,0.442-0.451C681.438,143.281,678.985,143.258,677.415,143.334"/>
	<path id="Fill-16" fill="#DDE3E9" d="M52.463,250.541c-1.509,1.222-2.99,2.471-4.434,3.77c-1.101,0.99-3.048,2.175-3.443,3.675
		c-0.411,1.559,0.886,3.018,1.91,3.96c5.417,4.983,11.517,8.353,19.023,8.913c11.558,0.863,21.617-2.088,31.645-7.896
		c7.044-4.079,11.71-10.114,12.729-18.262c8.389,3.487,16.502,8.292,23.397,14.19c3.402,2.911,6.332,6.135,9.042,9.708
		c1.736,2.29,3.415,4.617,4.973,7.032c0.677,1.05,1.366,2.911,2.484,3.515c1.313,0.711,2.899-0.402,2.834-1.861
		c-0.054-1.215-1.366-2.624-1.979-3.617c-1.019-1.648-2.053-3.287-3.142-4.891c-1.762-2.597-3.583-5.156-5.569-7.587
		c-4.463-5.459-10.142-9.969-16.029-13.814c-11.294-7.378-23.689-12.026-37.431-12.42c-8.45-0.242-15.559,2.645-22.785,6.956
		C61.189,244.596,56.545,247.235,52.463,250.541"/>
	<path id="Leaf" fill="#F5F7FA" d="M162.073,214.855c-8.806-9.068-17.642-18.023-27.48-26.009
		c-5.798-4.706-11.908-8.984-17.893-13.446c0.69,0.605,1.368,1.227,2.028,1.865c-1.868-1.268-4.313-1.984-6.293-3.158
		c-2.209-1.31-4.32-2.807-6.392-4.316c-4.043-2.946-8.025-5.948-12.181-8.74c-4.63-3.11-9.429-5.985-14.138-8.979
		c-3.997-2.541-8.042-5.321-12.317-7.398c-2.331-1.132-4.666-2.474-7.006-3.654c-0.783-0.395-8.729-5.413-8.709-5.427
		c0.439-0.331,4.438,1.548,5.056,1.8c1.806,0.738,3.534,1.62,5.271,2.5c-0.954-1.88-1.708-3.855-2.119-5.935
		c-0.127-0.642-1.144-5.314-0.623-5.706c0.26-0.196,2.794,8.164,2.924,8.967c0.105,0.652,0.09,1.593,0.304,2.211
		c0.345,0.998,0.328,0.697,1.088,1.259c1.393,1.031,3.242,1.675,4.75,2.537c0.813,0.454,3.331,2.253,4.847,2.767
		c4.587,2.228,9.237,5.656,13.596,8.502c-1.144-2.15-2.015-4.398-2.649-6.754c-0.151-0.559-1.78-5.577-1.385-5.875
		c0.445-0.335,3.549,7.328,3.733,8.053c0.342,1.348,0.413,2.848,0.84,4.159c0.469,1.439,1.934,1.949,3.254,2.788
		c4.857,3.086,9.548,6.366,14.16,9.795c5.033-8.951-0.77-19.759-5.661-27.27c-3.525-5.412-8.271-10.053-13.282-14.104
		c-6.688-5.407-14.339-9.726-21.981-13.677c-8.904-4.604-18.528-7.456-28.534-8.773c-5.233-0.689-10.586-0.67-15.873-0.449
		c-2.582,0.108-5.061,0.45-7.535,1.292c-1.115,0.38-2.193,0.859-3.244,1.395c-0.798,0.408-2.729,0.838-3.188,1.445
		c-3.777,4.917-5.709,9.815-5.415,15.993c0.279,5.849,2.126,11.7,4.633,16.916c2.792,5.809,6.382,11.081,11.077,15.506
		c3.582,3.376,7.587,6.314,11.566,9.213c14.151,10.313,32.092,19.283,50.42,16.979c5.933-0.746,11.576-2.82,16.849-5.64
		c1.243-0.664,2.478-1.336,3.651-2.121c0.791-0.529,2.905-2.912,3.7-2.998c1.09-0.119,3.439,2.099,4.462,2.774
		c7.774,5.132,15.344,10.541,22.755,16.169c7.885,5.988,15.383,12.384,22.661,19.081c3.095,2.848,6.171,5.703,9.177,8.646
		c0.7,0.685,2.411,3.207,3.679,3.321c0.803,0.072,1.343-0.613,1.229-1.355C165.69,217.715,162.974,215.784,162.073,214.855"/>
	<path id="Fill-10" fill="#EEF1F5" d="M668.17,179.66c-3.411-0.745-7.177-0.688-10.651-0.626
		c-18.634,0.253-36.932,9.075-48.84,23.171c-10.139,12-12.926,26.92-14.929,42.002c-0.198,1.497-0.284,2.985-0.396,4.486
		c-0.024,0.322-0.061,0.609-0.099,0.88c-0.788,0.704-1.201,1.525-0.734,2.427c-1.735,3.797-3.203,7.691-4.463,11.707
		c-3.707,11.82-7.478,23.865-5.154,36.294c0.542-6.84,1.684-13.834,3.049-20.562c0.079-0.387,0.163-0.77,0.252-1.151
		c0.009-0.04,0.018-0.081,0.026-0.12c0.483-2.061,1.111-4.059,1.875-6.026c0.009-0.021,0.017-0.042,0.024-0.063
		c0.101-0.26,0.208-0.517,0.313-0.774c0.219-0.532,0.444-1.065,0.683-1.595c0.08-0.18,0.158-0.361,0.232-0.545
		c1.111-2.727,1.582-5.798,2.578-8.618c0.238-0.642,0.487-1.28,0.748-1.916c0.016-0.037,0.031-0.074,0.047-0.111
		c0.706-1.71,1.485-3.4,2.31-5.071c0.448-0.337,0.688-1.172,1.074-1.931c0.08-0.15,0.704-1.147,0.891-1.722
		c0.485-0.939,0.969-1.878,1.458-2.816c-0.015,0.005-0.029,0.011-0.044,0.017c0.489-0.9,0.979-1.797,1.467-2.689
		c0.106-0.196,0.215-0.392,0.323-0.589c0.175-0.313,0.35-0.626,0.523-0.938c1.633-2.92,3.363-5.783,5.16-8.61
		c0.642-1.009,2.174-2.456,2.468-3.588c0.011-0.042,0.014-0.082,0.021-0.122c3.899-5.477,8.389-10.529,13.773-14.532
		c-0.651,0.703-2.034,3.091-2.4,3.563c-1.119,1.447-2.334,2.794-3.554,4.158c-2.185,2.442-4.317,4.963-6.212,7.628
		c-3.466,4.874-6.455,10.003-9.281,15.236c-0.027,0.031-0.057,0.06-0.082,0.091c-1.42,1.751-2.314,4.397-3.337,6.4
		c4.047-1.874,8.521-3.095,12.674-4.759c4.142-1.659,8.17-3.506,12.06-5.676c5.169-2.883,10.532-6.139,15.416-9.823
		c5.598-3.472,10.301-8.251,14.453-13.266c4.912-5.934,9.414-11.919,12.198-19.124c1.367-3.541,2.443-7.232,3.081-10.967
		c0.028-0.163,0.063-0.339,0.103-0.522c0.652-1.29,1.236-2.609,1.726-3.958C669.777,182.766,671.614,180.412,668.17,179.66"/>
	<path id="Leave-the-Leaf_x21_" fill="#EEF1F5" d="M90.198,204.729c-1.068-1.157-2.269-2.201-3.678-2.945
		c-0.356-0.188-3.01-1.449-3.183-1.172C82.935,201.255,89.877,204.359,90.198,204.729 M102.779,197
		c-0.009,0.049,0.911,1.61,1.162,2.09c0.533,1.021,1.026,2.061,1.489,3.104C104.744,200.353,104.04,198.645,102.779,197
		 M38.435,209.709c-0.886,0.285-1.952-0.839-0.802-1.117c0.93-0.222,0.885-0.275,1.302-1.024c0.339-0.608,0.548-1.35,0.846-1.989
		c0.631-1.354,1.347-2.646,2.226-3.855c1.883-2.594,4.178-4.829,6.752-6.712c4.492-3.287,9.529-6.291,14.872-7.801
		c8.495-2.399,18.164-2.548,26.672-0.884c5.27,1.03,10.085,2.821,13.584,7.064c1.749,2.12,3.122,4.604,3.722,7.34
		c0.157,0.715,0.127,1.51,0.324,2.21c0.301,1.076,0.168,0.79,1.427,0.999c1.374,0.229,2.748,0.462,4.121,0.699
		c3.595,0.622,7.21,1.282,10.713,2.291c1.153,0.332,2.28,0.738,3.382,1.209c0.833,0.356,4.15,1.475,4.553,2.557
		c0.671,1.8-1.577,0.984-2.276,0.592c-0.612-0.344-1.24-0.664-1.877-0.959c-1.605-0.743-3.277-1.317-4.987-1.774
		c-1.848-0.494-3.733-0.863-5.611-1.232c-1.751-0.344-3.51-0.657-5.27-0.957c-0.978-0.166-1.957-0.328-2.936-0.49
		c-0.334-0.055-0.924-0.345-0.879,0.09c-2.058-0.397-4.283-0.34-6.379-0.449c-2.567-0.134-5.145-0.243-7.72-0.163
		c-1.858,0.058-3.717,0.18-5.566,0.429c-1.08,0.146-2.143,0.36-3.203,0.63c-0.582,0.148-2.877,0.463-3.194,0.971
		c0.136-0.218,2.669-0.007,2.992-0.019c1.29-0.048,2.569-0.176,3.854-0.319c2.384-0.267,4.77-0.406,7.162-0.386
		c-0.009,0.42-1.643,1.168-2.042,1.446c-0.895,0.624-1.751,1.305-2.55,2.052c-1.408,1.315-3.093,2.944-4.067,4.502
		c0.287-0.459,1.703-1.057,2.205-1.408c0.805-0.562,1.593-1.162,2.339-1.803c0.689-0.592,1.332-1.231,1.963-1.884
		c0.632-0.654,1.489-2.013,2.32-2.448c0.05-0.026,0.412,0.26,0.618,0.162c0.207-0.098,0.465-0.587,0.518-0.607
		c0.773-0.298,2.241,0.073,3.054,0.11c2.107,0.097,4.212,0.224,6.318,0.34c0.652,0.036,1.207-0.112,1.453,0.369
		c0.262,0.514-0.219,1.862-0.355,2.421c-0.508,2.076-1.41,3.938-2.829,5.546c-2.659,3.013-5.937,5.021-9.64,6.365
		c-14.184,5.146-29.275,7.207-43.455,1.854C46.217,221.461,37.376,217.501,38.435,209.709"/>
	<g id="Background-Shape-2" transform="translate(39.000000, 358.000000)" opacity="0.6">
		<path id="Background-Shape" fill="#DDE3E9" d="M648.9,94.152c9.65,65.324-224.374,107.933-425.803,78.197
			C21.667,142.614-70.739,26.493,25.38-35.38C121.499-97.253,639.251,28.828,648.9,94.152z"/>
	</g>
	<g id="Mobile3" transform="translate(138.000000, 76.000000)">
		<path id="Container" fill="#F3F3F3" d="M-4.811-52h143c4.418,0,8,3.582,8,8v286c0,4.418-3.582,8-8,8h-143c-4.418,0-8-3.582-8-8
			V-44C-12.811-48.418-9.229-52-4.811-52z"/>
		<circle id="Touch" fill="#FFFFFF" cx="66.189" cy="216" r="15"/>
		<g id="Camera" transform="translate(64.000000, 16.000000)">
			<circle id="Lens" fill="#FFFFFF" cx="-10.811" cy="-50" r="2"/>
			<path id="Sensor" fill="#FFFFFF" d="M-1.811-52h17c1.104,0,2,0.896,2,2l0,0c0,1.104-0.896,2-2,2h-17c-1.104,0-2-0.896-2-2l0,0
				C-3.811-51.104-2.915-52-1.811-52z"/>
		</g>
		<g id="Rows" transform="translate(14.000000, 28.000000)">
			<g id="Row">
				<path id="Background" fill="#FFFFFF" d="M-8.811-52h123c2.209,0,4,1.791,4,4v46c0,2.209-1.791,4-4,4h-123c-2.209,0-4-1.791-4-4
					v-46C-12.811-50.209-11.02-52-8.811-52z"/>
				<g id="Text" transform="translate(39.000000, 16.200000)">
					<path id="Name" fill="#DDE3E9" d="M-9.811-52h67c1.657,0,3,1.343,3,3v2.1c0,1.657-1.343,3-3,3h-67c-1.657,0-3-1.343-3-3V-49
						C-12.811-50.657-11.467-52-9.811-52z"/>
					<path id="Name_1_" fill="#DDE3E9" d="M-9.811-38.5h43c1.657,0,3,1.343,3,3v2.1c0,1.657-1.343,3-3,3h-43c-1.657,0-3-1.343-3-3
						v-2.1C-12.811-37.157-11.467-38.5-9.811-38.5z"/>
				</g>
				<circle id="Avatar" fill="#C5CFD6" cx="8.189" cy="-25" r="12"/>
			</g>
			<g id="Row_1_" transform="translate(0.000000, 62.000000)">
				<path id="Background_1_" fill="#FFFFFF" d="M-8.811-52h123c2.209,0,4,1.791,4,4v34c0,2.209-1.791,4-4,4h-123
					c-2.209,0-4-1.791-4-4v-34C-12.811-50.209-11.02-52-8.811-52z"/>
				<g id="Text_1_" transform="translate(39.000000, 12.600000)">
					<path id="Name_2_" fill="#DDE3E9" d="M-9.811-52h67c1.657,0,3,1.343,3,3v0.3c0,1.657-1.343,3-3,3h-67c-1.657,0-3-1.343-3-3V-49
						C-12.811-50.657-11.467-52-9.811-52z"/>
					<path id="Name_3_" fill="#DDE3E9" d="M-9.811-41.5h43c1.657,0,3,1.343,3,3v0.3c0,1.657-1.343,3-3,3h-43c-1.657,0-3-1.343-3-3
						v-0.3C-12.811-40.157-11.467-41.5-9.811-41.5z"/>
				</g>
				<circle id="Avatar_1_" fill="#C5CFD6" cx="8.189" cy="-31" r="12"/>
			</g>
			<g id="Row_2_" transform="translate(0.000000, 112.000000)">
				<path id="Background_2_" fill="#FFFFFF" d="M-8.811-52h123c2.209,0,4,1.791,4,4v34c0,2.209-1.791,4-4,4h-123
					c-2.209,0-4-1.791-4-4v-34C-12.811-50.209-11.02-52-8.811-52z"/>
				<g id="Text_2_" transform="translate(39.000000, 12.600000)">
					<path id="Name_4_" fill="#DDE3E9" d="M-9.811-52h67c1.657,0,3,1.343,3,3v0.3c0,1.657-1.343,3-3,3h-67c-1.657,0-3-1.343-3-3V-49
						C-12.811-50.657-11.467-52-9.811-52z"/>
					<path id="Name_5_" fill="#DDE3E9" d="M-9.811-41.5h43c1.657,0,3,1.343,3,3v0.3c0,1.657-1.343,3-3,3h-43c-1.657,0-3-1.343-3-3
						v-0.3C-12.811-40.157-11.467-41.5-9.811-41.5z"/>
				</g>
				<circle id="Avatar_2_" fill="#AFB9C5" cx="8.189" cy="-31" r="12"/>
			</g>
			<g id="Row_3_" transform="translate(0.000000, 162.000000)">
				<path id="Background_3_" fill="#FFFFFF" d="M-8.811-52h123c2.209,0,4,1.791,4,4v34c0,2.209-1.791,4-4,4h-123
					c-2.209,0-4-1.791-4-4v-34C-12.811-50.209-11.02-52-8.811-52z"/>
				<g id="Text_3_" transform="translate(39.000000, 12.600000)">
					<path id="Name_6_" fill="#DDE3E9" d="M-9.811-52h67c1.657,0,3,1.343,3,3v0.3c0,1.657-1.343,3-3,3h-67c-1.657,0-3-1.343-3-3V-49
						C-12.811-50.657-11.467-52-9.811-52z"/>
					<path id="Name_7_" fill="#DDE3E9" d="M-9.811-41.5h43c1.657,0,3,1.343,3,3v0.3c0,1.657-1.343,3-3,3h-43c-1.657,0-3-1.343-3-3
						v-0.3C-12.811-40.157-11.467-41.5-9.811-41.5z"/>
				</g>
				<circle id="Avatar_3_" fill="#C5CFD6" cx="8.189" cy="-31" r="12"/>
			</g>
		</g>
	</g>
	<g id="Mobile3_1_" transform="translate(156.000000, 102.000000)">
		<g id="Group" transform="translate(0.000000, 218.000000)">
			<path id="Fill-16_1_" fill="#8CCCF0" d="M-0.671-52c-1.325,0-2.646,0.026-3.969,0.096c-1.008,0.053-2.55-0.157-3.403,0.472
				c-0.887,0.653-0.825,1.99-0.687,2.934c0.732,4.992,2.52,9.418,6.258,12.955c5.757,5.445,12.356,8.212,20.166,9.444
				c5.485,0.865,10.549-0.336,14.587-4.237c2.951,5.476,5.189,11.536,6.312,17.651c0.554,3.019,0.724,6,0.626,9.073
				c-0.062,1.968-0.171,3.933-0.382,5.892c-0.091,0.851-0.525,2.139-0.192,2.943c0.391,0.945,1.71,1.036,2.302,0.23
				c0.493-0.67,0.402-1.986,0.503-2.78c0.168-1.317,0.323-2.637,0.435-3.961c0.18-2.144,0.314-4.292,0.304-6.443
				c-0.022-4.833-1.097-9.687-2.567-14.274c-2.82-8.802-7.396-16.625-14.512-22.763c-4.375-3.774-9.383-5.303-15.065-6.123
				C6.508-51.402,2.913-52-0.671-52"/>
			<path id="Fill-18" fill="#8CCCF0" d="M19.761-17C5.462-17-4.168-5.476-8.722,6.502c-1.717,4.515-2.119,9.472-2.78,14.213
				c-0.212,1.521-0.134,3.839-0.751,5.194c-0.224,0.491-0.738,0.668-0.492,1.338c0.149,0.405,0.44,0.653,0.878,0.734
				c0.899,0.165,2.171-0.814,2.942-1.201c6.396-3.207,10.599-8.167,14.027-14.235C7.227,8.783,9.383,4.879,10.646,0.75
				c0.771-2.522,1.22-5.18,1.484-7.796c0.104-1.03,0.204-2.086,0.198-3.122c-0.006-1.029-0.484-1.572-0.829-2.469
				c4.771-1.806,10.157-2.298,14.99-0.426c4.47,1.73,8.183,5.076,10.262,9.278c0.54,1.093,0.957,2.245,1.26,3.42
				c0.199,0.77,0.208,1.769,0.576,2.465c0.893,1.687,2.771,0.56,2.59-1.012c-0.502-4.382-3.009-8.78-6.213-11.826
				C30.924-14.579,25.447-17,19.761-17"/>
		</g>
		<path id="Container_1_" fill="#DDE3E9" d="M43.189-52h143c4.418,0,8,3.582,8,8v286c0,4.418-3.582,8-8,8h-143c-4.418,0-8-3.582-8-8
			V-44C35.189-48.418,38.771-52,43.189-52z"/>
		<circle id="Touch_1_" fill="#FFFFFF" cx="114.189" cy="216" r="15"/>
		<g id="Camera_1_" transform="translate(112.000000, 16.000000)">
			<circle id="Lens_1_" fill="#FFFFFF" cx="-10.811" cy="-50" r="2"/>
			<path id="Sensor_1_" fill="#FFFFFF" d="M-1.811-52h17c1.104,0,2,0.896,2,2l0,0c0,1.104-0.896,2-2,2h-17c-1.104,0-2-0.896-2-2l0,0
				C-3.811-51.104-2.915-52-1.811-52z"/>
		</g>
		<g id="Rows_1_" transform="translate(62.000000, 28.000000)">
			<g id="Row_4_">
				<path id="Container_2_" fill="#FFFFFF" d="M-8.811-52h123c2.209,0,4,1.791,4,4v46c0,2.209-1.791,4-4,4h-123
					c-2.209,0-4-1.791-4-4v-46C-12.811-50.209-11.02-52-8.811-52z"/>
				<g id="Text-Stuff" transform="translate(9.000000, 16.200000)">
					<path id="Label" fill="#DDE3E9" d="M-9.811-52h67c1.657,0,3,1.343,3,3v2.1c0,1.657-1.343,3-3,3h-67c-1.657,0-3-1.343-3-3V-49
						C-12.811-50.657-11.467-52-9.811-52z"/>
					<path id="Label_1_" fill="#DDE3E9" d="M-9.811-38.5h43c1.657,0,3,1.343,3,3v2.1c0,1.657-1.343,3-3,3h-43c-1.657,0-3-1.343-3-3
						v-2.1C-12.811-37.157-11.467-38.5-9.811-38.5z"/>
				</g>
				<g id="Check" transform="translate(110.000000, 20.000000)">
					<circle id="Background_4_" fill="#DDE3E9" cx="-5.811" cy="-45" r="7"/>
					<circle id="Indicator" fill="#F3F3F3" cx="-5.811" cy="-45" r="3"/>
				</g>
			</g>
			<g id="Row_5_" transform="translate(0.000000, 62.000000)">
				<path id="Background_5_" fill="#FFFFFF" d="M-8.811-52h123c2.209,0,4,1.791,4,4v34c0,2.209-1.791,4-4,4h-123
					c-2.209,0-4-1.791-4-4v-34C-12.811-50.209-11.02-52-8.811-52z"/>
				<g id="Text_4_" transform="translate(39.000000, 12.600000)">
					<path id="Name_8_" fill="#DDE3E9" d="M-9.811-52h67c1.657,0,3,1.343,3,3v0.3c0,1.657-1.343,3-3,3h-67c-1.657,0-3-1.343-3-3V-49
						C-12.811-50.657-11.467-52-9.811-52z"/>
					<path id="Name_9_" fill="#DDE3E9" d="M-9.811-41.5h43c1.657,0,3,1.343,3,3v0.3c0,1.657-1.343,3-3,3h-43c-1.657,0-3-1.343-3-3
						v-0.3C-12.811-40.157-11.467-41.5-9.811-41.5z"/>
				</g>
				<circle id="Avatar_4_" fill="#C5CFD6" cx="8.189" cy="-31" r="12"/>
			</g>
			<g id="Row_6_" transform="translate(0.000000, 112.000000)">
				<path id="Container_3_" fill="#FFFFFF" d="M-8.811-52h123c2.209,0,4,1.791,4,4v34c0,2.209-1.791,4-4,4h-123
					c-2.209,0-4-1.791-4-4v-34C-12.811-50.209-11.02-52-8.811-52z"/>
				<g id="Text-Stuff_1_" transform="translate(9.000000, 12.600000)">
					<path id="Label_2_" fill="#DDE3E9" d="M-9.811-52h67c1.657,0,3,1.343,3,3v0.3c0,1.657-1.343,3-3,3h-67c-1.657,0-3-1.343-3-3
						V-49C-12.811-50.657-11.467-52-9.811-52z"/>
					<path id="Label_3_" fill="#AFB9C5" d="M-9.811-41.5h43c1.657,0,3,1.343,3,3v0.3c0,1.657-1.343,3-3,3h-43c-1.657,0-3-1.343-3-3
						v-0.3C-12.811-40.157-11.467-41.5-9.811-41.5z"/>
				</g>
				<g id="Check_1_" transform="translate(110.000000, 14.000000)">
					<circle id="Background_6_" fill="#DDE3E9" cx="-5.811" cy="-45" r="7"/>
					<circle id="Indicator_1_" fill="#F3F3F3" cx="-5.811" cy="-45" r="3"/>
				</g>
			</g>
			<g id="Row_7_" transform="translate(0.000000, 162.000000)">
				<path id="Background_7_" fill="#FFFFFF" d="M-8.811-52h123c2.209,0,4,1.791,4,4v34c0,2.209-1.791,4-4,4h-123
					c-2.209,0-4-1.791-4-4v-34C-12.811-50.209-11.02-52-8.811-52z"/>
				<g id="Text_5_" transform="translate(39.000000, 12.600000)">
					<path id="Name_10_" fill="#DDE3E9" d="M-9.811-52h67c1.657,0,3,1.343,3,3v0.3c0,1.657-1.343,3-3,3h-67c-1.657,0-3-1.343-3-3
						V-49C-12.811-50.657-11.467-52-9.811-52z"/>
					<path id="Name_11_" fill="#DDE3E9" d="M-9.811-41.499h43c1.657,0,3,1.343,3,3v0.299c0,1.657-1.343,3-3,3h-43
						c-1.657,0-3-1.343-3-3v-0.299C-12.811-40.157-11.467-41.499-9.811-41.499z"/>
				</g>
				<circle id="Avatar_5_" fill="#C5CFD6" cx="8.189" cy="-31" r="12"/>
			</g>
		</g>
	</g>
	<g id="Web" transform="translate(270.000000, 127.000000)">
		<path id="Container_4_" fill="#F3F3F3" d="M-4.811-52h319c4.418,0,8,3.582,8,8v330c0,4.418-3.582,8-8,8h-319c-4.418,0-8-3.582-8-8
			V-44C-12.811-48.418-9.229-52-4.811-52z"/>
		<path id="Background_8_" fill="#FFFFFF" d="M244.189-9h54c4.418,0,8,3.582,8,8v65c0,4.418-3.582,8-8,8h-54c-4.418,0-8-3.582-8-8
			V-1C236.189-5.418,239.771-9,244.189-9z"/>
		<g id="Profile-Info" transform="translate(259.000000, 58.000000)">
			<circle id="Avatar_6_" fill="#DDE3E9" cx="12.189" cy="-36" r="16"/>
			<path id="Name_12_" fill="#DDE3E9" d="M-9.811-16h44c1.657,0,3,1.343,3,3l0,0c0,1.657-1.343,3-3,3h-44c-1.657,0-3-1.343-3-3l0,0
				C-12.811-14.657-11.468-16-9.811-16z"/>
			<path id="Name_13_" fill="#DDE3E9" d="M-1.811-6h28c1.657,0,3,1.343,3,3l0,0c0,1.657-1.343,3-3,3h-28c-1.657,0-3-1.343-3-3l0,0
				C-4.811-4.657-3.468-6-1.811-6z"/>
		</g>
		<path id="Header" fill="#C5CFD6" d="M-4.811-52h319c4.418,0,8,3.582,8,8v19h-335v-19C-12.811-48.418-9.229-52-4.811-52z"/>
		<g id="Buttons" transform="translate(9.000000, 10.000000)">
			<circle id="buttons" fill="#F3F3F3" cx="-8.811" cy="-48" r="4"/>
			<circle id="buttons_1_" fill="#F3F3F3" cx="3.189" cy="-48" r="4"/>
			<circle id="buttons_2_" fill="#F3F3F3" cx="15.189" cy="-48" r="4"/>
		</g>
		<g id="Components" transform="translate(249.000000, 132.000000)">
			<path id="Background_9_" fill="#FFFFFF" d="M-4.811-52h54c4.418,0,8,3.582,8,8v178c0,4.418-3.582,8-8,8h-54c-4.418,0-8-3.582-8-8
				V-44C-12.811-48.418-9.229-52-4.811-52z"/>
			<g id="Rows_2_" transform="translate(18.000000, 18.000000)">
				<path id="Data" fill="#DDE3E9" d="M-8.811-52h26c2.209,0,4,1.791,4,4v18c0,2.209-1.791,4-4,4h-26c-2.209,0-4-1.791-4-4v-18
					C-12.811-50.209-11.02-52-8.811-52z"/>
				<path id="Data_1_" fill="#AFB9C5" d="M-8.811-18h26c2.209,0,4,1.791,4,4V3c0,2.209-1.791,4-4,4h-26c-2.209,0-4-1.791-4-4v-17
					C-12.811-16.209-11.02-18-8.811-18z"/>
				<path id="Data_2_" fill="#DDE3E9" d="M-8.811,15h26c2.209,0,4,1.791,4,4v17c0,2.209-1.791,4-4,4h-26c-2.209,0-4-1.791-4-4V19
					C-12.811,16.791-11.02,15-8.811,15z"/>
				<path id="Data_3_" fill="#DDE3E9" d="M-8.811,81h26c2.209,0,4,1.791,4,4v17c0,2.209-1.791,4-4,4h-26c-2.209,0-4-1.791-4-4V85
					C-12.811,82.791-11.02,81-8.811,81z"/>
				<path id="Data_4_" fill="#C5CFD6" d="M-8.811,48h26c2.209,0,4,1.791,4,4v17c0,2.209-1.791,4-4,4h-26c-2.209,0-4-1.791-4-4V52
					C-12.811,49.791-11.02,48-8.811,48z"/>
			</g>
		</g>
		<g id="Rows_3_" transform="translate(16.000000, 44.000000)">
			<g id="Row_8_">
				<path id="Container_5_" fill="#FFFFFF" d="M-8.811-52h217c2.209,0,4,1.791,4,4v39c0,2.209-1.791,4-4,4h-217
					c-2.209,0-4-1.791-4-4v-39C-12.811-50.209-11.02-52-8.811-52z"/>
				<g id="Text-Stuff_2_" transform="translate(9.000000, 14.100000)">
					<path id="Label_4_" fill="#DDE3E9" d="M-9.811-52h161c1.657,0,3,1.343,3,3v1.05c0,1.657-1.343,3-3,3h-161c-1.657,0-3-1.343-3-3
						V-49C-12.811-50.657-11.467-52-9.811-52z"/>
					<path id="Label_5_" fill="#DDE3E9" d="M-9.811-40.25H96.285c1.657,0,3,1.343,3,3v1.05c0,1.657-1.343,3-3,3H-9.811
						c-1.657,0-3-1.343-3-3v-1.05C-12.811-38.907-11.467-40.25-9.811-40.25z"/>
				</g>
				<g id="Check_2_" transform="translate(193.954198, 16.500000)">
					<circle id="Background_10_" fill="#DDE3E9" cx="-5.811" cy="-45" r="7"/>
					<circle id="Indicator_2_" fill="#F3F3F3" cx="-5.811" cy="-45" r="3"/>
				</g>
			</g>
			<g id="Row_9_" transform="translate(0.000000, 55.000000)">
				<path id="Container_6_" fill="#FFFFFF" d="M-8.811-52h217c2.209,0,4,1.791,4,4v31c0,2.209-1.791,4-4,4h-217
					c-2.209,0-4-1.791-4-4v-31C-12.811-50.209-11.02-52-8.811-52z"/>
				<g id="Text-Stuff_3_" transform="translate(9.000000, 11.700000)">
					<path id="Label_6_" fill="#DDE3E9" d="M-9.886-52h161.15c1.615,0,2.925,1.31,2.925,2.925l0,0c0,1.615-1.31,2.925-2.925,2.925
						H-9.886c-1.615,0-2.925-1.31-2.925-2.925l0,0C-12.811-50.69-11.501-52-9.886-52z"/>
					<path id="Label_7_" fill="#DDE3E9" d="M-9.886-42.25H96.36c1.615,0,2.925,1.31,2.925,2.925l0,0c0,1.615-1.31,2.925-2.925,2.925
						H-9.886c-1.615,0-2.925-1.31-2.925-2.925l0,0C-12.811-40.94-11.501-42.25-9.886-42.25z"/>
				</g>
				<g id="Check_3_" transform="translate(193.954198, 12.500000)">
					<circle id="Background_11_" fill="#DDE3E9" cx="-5.811" cy="-45" r="7"/>
					<circle id="Indicator_3_" fill="#F3F3F3" cx="-5.811" cy="-45" r="3"/>
				</g>
			</g>
			<g id="Row_10_" transform="translate(0.000000, 102.000000)">
				<path id="Container_7_" fill="#FFFFFF" d="M-8.811-52h217c2.209,0,4,1.791,4,4v31c0,2.209-1.791,4-4,4h-217
					c-2.209,0-4-1.791-4-4v-31C-12.811-50.209-11.02-52-8.811-52z"/>
				<g id="Text-Stuff_4_" transform="translate(9.000000, 11.700000)">
					<path id="Label_8_" fill="#DDE3E9" d="M-9.886-52h161.15c1.615,0,2.925,1.31,2.925,2.925l0,0c0,1.615-1.31,2.925-2.925,2.925
						H-9.886c-1.615,0-2.925-1.31-2.925-2.925l0,0C-12.811-50.69-11.501-52-9.886-52z"/>
					<path id="Label_9_" fill="#DDE3E9" d="M-9.886-42.25H96.36c1.615,0,2.925,1.31,2.925,2.925l0,0c0,1.615-1.31,2.925-2.925,2.925
						H-9.886c-1.615,0-2.925-1.31-2.925-2.925l0,0C-12.811-40.94-11.501-42.25-9.886-42.25z"/>
				</g>
				<g id="Check_4_" transform="translate(193.954198, 12.500000)">
					<circle id="Background_12_" fill="#DDE3E9" cx="-5.811" cy="-45" r="7"/>
					<circle id="Indicator_4_" fill="#AFB9C5" cx="-5.811" cy="-45" r="3"/>
				</g>
			</g>
			<g id="Row_11_" transform="translate(0.000000, 243.000000)">
				<path id="Container_8_" fill="#FFFFFF" d="M-8.811-52h217c2.209,0,4,1.791,4,4v31c0,2.209-1.791,4-4,4h-217
					c-2.209,0-4-1.791-4-4v-31C-12.811-50.209-11.02-52-8.811-52z"/>
				<g id="Text-Stuff_5_" transform="translate(9.000000, 11.700000)">
					<path id="Label_10_" fill="#DDE3E9" d="M-9.886-52h161.15c1.615,0,2.925,1.31,2.925,2.925l0,0c0,1.615-1.31,2.925-2.925,2.925
						H-9.886c-1.615,0-2.925-1.31-2.925-2.925l0,0C-12.811-50.69-11.501-52-9.886-52z"/>
					<path id="Label_11_" fill="#DDE3E9" d="M-9.886-42.25H96.36c1.615,0,2.925,1.31,2.925,2.925l0,0
						c0,1.615-1.31,2.925-2.925,2.925H-9.886c-1.615,0-2.925-1.31-2.925-2.925l0,0C-12.811-40.94-11.501-42.25-9.886-42.25z"/>
				</g>
				<g id="Check_5_" transform="translate(193.954198, 12.500000)">
					<circle id="Background_13_" fill="#DDE3E9" cx="-5.811" cy="-45" r="7"/>
					<circle id="Indicator_5_" fill="#F3F3F3" cx="-5.811" cy="-45" r="3"/>
				</g>
			</g>
			<g id="Row_12_" transform="translate(0.000000, 196.000000)">
				<path id="Container_9_" fill="#FFFFFF" d="M-8.811-52h217c2.209,0,4,1.791,4,4v31c0,2.209-1.791,4-4,4h-217
					c-2.209,0-4-1.791-4-4v-31C-12.811-50.209-11.02-52-8.811-52z"/>
				<g id="Text-Stuff_6_" transform="translate(9.000000, 11.700000)">
					<path id="Label_12_" fill="#DDE3E9" d="M-9.886-52h161.15c1.615,0,2.925,1.31,2.925,2.925l0,0c0,1.615-1.31,2.925-2.925,2.925
						H-9.886c-1.615,0-2.925-1.31-2.925-2.925l0,0C-12.811-50.69-11.501-52-9.886-52z"/>
					<path id="Label_13_" fill="#DDE3E9" d="M-9.886-42.25H96.36c1.615,0,2.925,1.31,2.925,2.925l0,0
						c0,1.615-1.31,2.925-2.925,2.925H-9.886c-1.615,0-2.925-1.31-2.925-2.925l0,0C-12.811-40.94-11.501-42.25-9.886-42.25z"/>
				</g>
				<g id="Check_6_" transform="translate(193.954198, 12.500000)">
					<circle id="Background_14_" fill="#DDE3E9" cx="-5.811" cy="-45" r="7"/>
					<circle id="Indicator_6_" fill="#F3F3F3" cx="-5.811" cy="-45" r="3"/>
				</g>
			</g>
			<g id="Row_13_" transform="translate(0.000000, 149.000000)">
				<path id="Container_10_" fill="#FFFFFF" d="M-8.811-52h217c2.209,0,4,1.791,4,4v31c0,2.209-1.791,4-4,4h-217
					c-2.209,0-4-1.791-4-4v-31C-12.811-50.209-11.02-52-8.811-52z"/>
				<g id="Text-Stuff_7_" transform="translate(9.000000, 11.700000)">
					<path id="Label_14_" fill="#DDE3E9" d="M-9.886-52h161.15c1.615,0,2.925,1.31,2.925,2.925l0,0c0,1.615-1.31,2.925-2.925,2.925
						H-9.886c-1.615,0-2.925-1.31-2.925-2.925l0,0C-12.811-50.69-11.501-52-9.886-52z"/>
					<path id="Label_15_" fill="#DDE3E9" d="M-9.886-42.25H96.36c1.615,0,2.925,1.31,2.925,2.925l0,0
						c0,1.615-1.31,2.925-2.925,2.925H-9.886c-1.615,0-2.925-1.31-2.925-2.925l0,0C-12.811-40.94-11.501-42.25-9.886-42.25z"/>
				</g>
				<g id="Check_7_" transform="translate(193.954198, 12.500000)">
					<circle id="Background_15_" fill="#DDE3E9" cx="-5.811" cy="-45" r="7"/>
					<circle id="Indicator_7_" fill="#F3F3F3" cx="-5.811" cy="-45" r="3"/>
				</g>
			</g>
		</g>
	</g>
	<path id="Fill-1" fill="#8CCCF0" d="M675.175,245.375c-3.944-2.674-9.189-3.375-13.909-3.375c-18.437,0-35.765,6.84-50.735,17.032
		c-8.202,5.584-15.541,12.695-22.02,20.1c-3.739,4.275-7.073,8.898-9.434,14.041c-1.593,3.472-2.687,7.088-3.428,10.817
		c-0.903,4.547-1.62,9.186-1.945,13.807c-0.128,1.82-1.186,11.478,1.841,11.641c-0.018,0.238-0.021,0.465-0.003,0.669
		c-6.57,10.273-10.63,22.313-14.395,33.729c-3.275,9.934-6.193,19.951-8.088,30.228c-2.495,13.53-4.133,27.263-4.912,40.987
		c-0.167,2.949-0.282,5.9-0.381,8.854c-0.084,2.52-0.169,5.038-0.252,7.558c-0.092,2.822-0.589,6.073-0.14,8.879
		c0.391,2.444,2.506,2.074,2.6-0.357c0.112-2.938,0.094-5.881,0.223-8.819c0.171-3.901,0.347-7.803,0.538-11.702
		c1.329-27.092,6.314-53.786,15.516-79.377c3.724-10.355,7.99-20.159,13.474-29.739c4.821-8.423,10.621-16.577,16.549-24.172
		c5.762-7.38,11.752-14.59,18.812-20.843c5.729-5.074,12.03-9.495,18.508-13.608c8.228-5.224,16.439-10.32,25.352-14.331
		c4.633-2.084,9.353-3.951,14.021-5.951c0.841-0.36,1.741-0.709,2.549-1.125C678.21,248.925,677.322,246.832,675.175,245.375"/>
	<path id="Fill-20" fill="#EEF1F5" d="M601.007,340c7.478,0,14.132,0.972,21.021,3.943c5.947,2.564,11.367,5.959,16.629,9.656
		c7.401,5.198,13.231,11.249,17.312,19.266c2.438,4.789,4.227,11.566,2.589,16.79c-1.929,6.152-7.225,11.283-14.199,10.199
		c-4.312-0.67-8.267-3.524-11.544-6.212c-3.922-3.214-7.061-7.079-9.652-11.372c-4.229-7.003-6.713-14.92-10.305-22.237
		c-1.704-3.473-3.352-6.971-5.393-10.271c-1.011-1.634-2.086-3.253-3.619-4.468c-0.82-0.649-4.278-1.774-2.956-3.233
		c-19.391,0.255-36.568,15.146-40.291,33.58c-0.347,1.718-0.617,3.45-0.903,5.179c-0.181,1.092-0.108,5.117-1.084,5.814
		c-2.152,1.538-1.247-3.135-1.155-3.808c0.239-1.738,0.493-3.477,0.761-5.211c1.453-9.434,5.653-18.204,12.657-24.932
		C578.884,344.99,589.69,340,601.007,340"/>
	<g id="Plant" transform="translate(65.000000, 333.000000)">
		<path id="Fill-19" fill="#8CCCF0" d="M-2.873-16.264C15.794,15.052,37.534,45.374,50.59,79.612
			c-0.526-4.035-1.084-8.066-1.708-12.093c-3.312-21.341-7.43-42.525-11.756-63.685c-2.204-10.773-4.534-21.507-6.924-32.241
			c-1.285-5.764-2.555-11.533-3.867-17.292c-0.318-1.396-0.591-3.832-0.989-6.302C38.034-10.363,50.27,31.305,59.22,73.942
			c1.174,5.596,2.174,11.182,2.993,16.758c0.28-1.272,0.556-2.545,0.857-3.813c3.621-15.207,9.053-30.293,15.521-44.513
			c3.092-6.8,6.644-13.45,10.825-19.647c2.608-3.863,8.757-8.456,11.136-12.412c-13.01,23.861-17.707,53.717-25.219,79.659
			c-1.833,6.33-3.678,12.65-5.486,18.981c11.328-22.718,28.904-41.384,53.341-49.473c-29.58,19.545-47.322,53.771-59.278,88.777
			c-0.04,0.415-0.086,0.83-0.127,1.246c3.519-6.677,7.95-12.717,13.956-16.946c12.855-9.055,27.116-6.417,39.586,1.351
			c-9.787-6.222-27.475-0.557-35.709,5.767c-5.896,4.526-10.934,10.599-15.309,16.522c-1.048,1.421-2.479,3.077-3.989,4.846
			c-2.118,13.75-5.57,27.407-10.458,40.955c0.807-3.889,0.224-10.108,0.447-13.007c0.024-0.313,0.044-0.628,0.068-0.94
			c-0.743,2.966-1.46,5.898-2.151,8.784c1.374-5.506,2.12-11.254,2.703-17.061c0.15-2.496,0.296-4.991,0.451-7.487
			c-0.049-4.735-0.244-9.49-0.574-14.253c-1.169-4.628-2.479-8.994-3.56-12.625c-3.898-13.101-9.612-25.651-16.646-37.36
			C26.183,97.366,18.502,87.688,9.634,78.935c-4.78-4.717-9.784-9.21-14.716-13.765c-1.784-1.647-4.972-5.696-7.729-7.807
			C7.27,68.434,27.938,80.41,42.587,98.248c-1.717-6.596-3.583-13.097-5.556-19.469C27.02,46.454,14.381,12.952-2.873-16.264z"/>
		<path id="Base" fill="#C5CFD6" d="M17.189,161c0,35.898,2.843,65,41,65s41-29.102,41-65"/>
	</g>
	<g id="humaaans_x2F_sitting-8">
		
			<g id="A-Human_x2F_Sitting" transform="translate(206.000000, 200.500000) scale(-1, 1) translate(-206.000000, -200.500000) translate(56.000000, 24.000000)">
			<g id="Head_x2F_Front_x2F_Short-2" transform="translate(82.000000, 0.000000)">
				<g id="Head" transform="translate(54.000000, 31.000000)">
					<path fill="#925C3D" d="M-390.928,217.363c-4.607-5.409-7.727-12.037-7.205-19.465c1.502-21.4,31.292-16.692,37.087-5.892
						c5.794,10.801,5.106,38.199-2.384,40.13c-2.986,0.77-9.349-1.116-15.824-5.02l4.064,28.756h-24L-390.928,217.363z"/>
				</g>
				<path id="Hair" fill="#191947" d="M-338.771,253.181c-3.012-13.401-11.594-22.536-10.283-28.526
					c0.874-3.993,3.203-6.477,6.986-7.45c1.957-7.917,8.269-11.284,18.935-10.102c15.999,1.773,25.764,8.417,21.547,23.038
					c-3.876,0-8.556-1.402-15.026,1c-2.054,0.762-3.522,3.125-4.406,7.09h-2.924c-2.838-4.705-5.637-6.434-8.396-5.187
					c-2.759,1.248-3.386,4.276-1.881,9.087l-1.44,11.049H-338.771z"/>
			</g>
			<g id="Bottom_x2F_Sitting_x2F_Baggy-Pants" transform="translate(0.000000, 187.000000)">
				<g id="Objects_x2F_Seat_x2F_Cube-2" transform="translate(10.000000, 42.000000)">
					<path id="Seat" fill="#C5CFD6" d="M-340.189,182.873h115c8.836,0,16,7.164,16,16v92c0,8.836-7.164,16-16,16h-115
						c-8.836,0-16-7.164-16-16v-92C-356.189,190.037-349.025,182.873-340.189,182.873z M-324.189,210.873c-2.209,0-4,1.791-4,4v60
						c0,2.209,1.791,4,4,4h83c2.209,0,4-1.791,4-4v-60c0-2.209-1.791-4-4-4H-324.189z"/>
				</g>
				<path id="LegLower" fill="#B28B68" d="M-100.03,343.873c-19.716-24.076-33.056-41.925-40.021-53.547
					c-11.926-19.898-21.686-37.605-24.766-44.369c-7.345-16.129,16.908-23.682,22.398-16.158
					c8.308,11.387,26.051,47.217,53.229,107.492L-100.03,343.873z"/>
				<path id="LegLower_1_" fill="#2F3776" d="M-140.432,336.873l-36.692-92.363c-7.849-16.837,30.05-27.904,35.817-20.068
					c13.095,17.789,44.216,87.966,48.117,93.266L-140.432,336.873z"/>
				
					<g id="Lower-Leg" transform="translate(220.172961, 98.499284) rotate(39.000000) translate(-220.172961, -98.499284) translate(192.672961, 26.499284)">
					<path id="LegLower_2_" fill="#925C3D" d="M-190.333,531.292c-1.007-12.6-2.876-56.221-1.006-76.411
						c0.538-5.802,1.104-11.412,1.675-16.673c1.697-15.641,30.699-15.147,28.397-0.287c-5.737,37.008-15.833,88.871-16.556,93.352
						C-178.836,537.553-189.7,539.211-190.333,531.292z"/>
				</g>
				
					<g id="Accessories_x2F_Shoe_x2F_Flat-Sneaker" transform="translate(189.500000, 140.000000) rotate(30.000000) translate(-189.500000, -140.000000) translate(159.000000, 120.000000)">
					<path id="shoe" fill="#E4E4E4" d="M-251.593,383.37c-1.119,2.987-1.679,5.221-1.678,6.704c0,1.802,0.3,4.434,0.901,7.894
						c2.093,0,20.892-0.001,56.402,0c1.465-4.845,0.62-7.462-2.539-7.849c-3.158-0.386-5.781-0.735-7.869-1.046l-26.215-11.687
						c-0.504-0.225-1.095,0.002-1.32,0.506c-0.004,0.008-0.008,0.017-0.012,0.026l-1.685,4.087
						c-2.923,1.364-5.299,2.046-7.126,2.045c-1.485,0-3.535-0.6-6.152-1.799l0,0c-1.004-0.46-2.191-0.019-2.651,0.985
						C-251.558,383.281-251.577,383.324-251.593,383.37z"/>
				</g>
				<g id="Accessories_x2F_Shoe_x2F_Flat-Sneaker_1_" transform="translate(288.000000, 132.000000)">
					<path id="shoe_1_" fill="#E4E4E4" d="M-396.512,208.275c-1.118,2.986-1.678,5.221-1.678,6.703c0,1.804,0.301,4.436,0.901,7.895
						c2.092,0,20.893,0,56.401,0c1.466-4.846,0.62-7.461-2.538-7.848c-3.157-0.387-5.78-0.735-7.87-1.047l-26.215-11.687
						c-0.504-0.226-1.096,0.002-1.32,0.506c-0.004,0.009-0.008,0.018-0.012,0.026l-1.685,4.088
						c-2.923,1.363-5.299,2.045-7.126,2.045c-1.485,0-3.536-0.6-6.152-1.799l0,0c-1.004-0.46-2.191-0.02-2.652,0.984
						C-396.477,208.186-396.494,208.23-396.512,208.275z"/>
				</g>
				<path id="Leg-and-Butt" fill="#5C64AC" d="M-190.327,249.123c-30.497-4.969-50.925-8.365-61.282-10.191
					c-29.522-5.206-38.132-21.094-33.041-55.756h54.395c7.199,2.078,37.277,14.935,90.234,38.568
					c9.527,4.73,7.753,18.676,6.012,23.271c-0.071,0.188-16.134,27.711-48.188,82.57l-44.498-28.348l36.451-46.775
					C-189.281,250.524-189.309,249.411-190.327,249.123z"/>
			</g>
			<g id="Body_x2F_Hoodie" transform="translate(22.000000, 82.000000)">
				<path id="Skin" fill="#925C3D" d="M-208.408,275.085l31.898,23.423c8.651,2.335,15.879,5.239,21.684,8.714
					c1.371,1.249,3.028,3.779-2.658,3.343c-5.686-0.438-11.688-0.643-12.472,1.297c-0.784,1.94,2.656,4.26,1.07,6.877
					c-1.058,1.744-6.053-2.631-14.986-13.124l-31.587-13.099L-208.408,275.085z M-330.881,275.893l20.896,0.082
					c-12.902,41.653-19.869,63.755-20.896,66.304c-2.314,5.734,2.582,14.467,4.676,19.161c-6.82,3.052-6.094-8.251-14.696-4.248
					c-7.853,3.653-13.826,10.272-22.899,4.675c-1.115-0.688-2.338-3.279,0.615-5.305c7.358-5.045,17.961-13.875,19.395-16.781
					C-341.838,335.818-337.535,314.521-330.881,275.893z"/>
				<path id="Coat-Back" fill="#E87725" d="M-271.494,188.205l8.646-1.483c32.084,27.716,45.262,80.961,84.588,109.166
					l-9.466,11.733C-255.949,299.174-272.859,234.227-271.494,188.205z"/>
				<path id="Shirt" fill="#DDE3E9" d="M-309.189,296.873c34.672,0,60.176,0,76.512,0c3.496,0,2.837-5.049,2.332-7.596
					c-5.833-29.4-28.603-61.093-28.603-102.943l-22.069-3.461C-299.271,212.231-305.584,248.378-309.189,296.873z"/>
				<path id="Coat-Front" fill="#F99B27" d="M-308.574,211.731c-3.205-0.922-5.744-3.07-7.615-6.447
					c-8.066-14.555-5.153-22.568,3.467-25.203c8.621-2.634,16.309,2.792,30.043,2.792c0.747,0,1.432,0.047,2.053,0.141l6.909,0.394
					c19.822,67.182,25.289,112.003,16.4,134.466h-60.22c-3.568,8.32-6.982,15.32-10.243,21h-16.409
					C-345.734,288.939-333.862,246.56-308.574,211.731z"/>
				<path id="Shade" fill="#010101" fill-opacity="0.1" d="M-304.424,283.371c1.894,15.846,4.972,27.347,9.234,34.502h-22.348
					C-313.375,308.168-309.004,296.668-304.424,283.371z"/>
			</g>
		</g>
		<g id="humaaans_x2F_standing-1">
			<g id="humaaan-11" transform="translate(34.000000, 17.000000)">
				
					<g id="Head_x2F_Front_x2F_Airy" transform="translate(132.804269, 62.826718) rotate(-7.000000) translate(-132.804269, -62.826718) translate(61.952002, 8.590719)">
					<g id="Head_1_" transform="translate(56.316359, 32.329762)">
						<path fill="#925C3D" d="M-5.333,128.852c-4.805-5.641-8.058-12.554-7.515-20.3c1.566-22.318,32.634-17.409,38.678-6.144
							c6.044,11.265,5.326,39.838-2.486,41.851c-3.115,0.803-9.75-1.164-16.504-5.234l4.239,29.989h-25.029L-5.333,128.852z"/>
					</g>
					<path id="hair" fill="#191947" d="M67.88,121.755c-3.299-0.541-12.181-0.913-13.819-0.913c-1.047,0-2.181,0.239-2.801-0.722
						c-0.508-0.787-0.322-2.118-0.473-3.031c-0.176-1.061-0.426-2.109-0.679-3.153c-0.719-2.973-1.807-5.802-3.329-8.456
						c-2.856-4.982-7.039-8.885-12.321-11.155c-5.833-2.507-12.432-3.082-18.706-2.573c-6.714,0.544-12.791,2.76-19.129,4.846
						c-6.041,1.987-12.367,2.77-18.685,1.799c-6.365-0.978-11.175-4.428-16.544-7.702c-5.496-3.352-11.778-5.545-18.275-5.041
						c-6.065,0.471-11.655,2.975-16.67,6.321c-4.692,3.13-8.564,6.896-10.751,12.196c-2.351,5.701-2.35,11.96,1.518,16.998
						c5.605,7.304,16.011,9.193,24.668,9.005c5.008-0.108,9.926-1.022,14.653-2.685c6.305-2.218,11.753-5.977,17.651-9.026
						c2.768-1.431,5.63-2.607,8.629-3.453c2.91-0.822,5.777-1.199,8.412,0.559c2.788,1.86,5.285,3.687,8.474,4.851
						c3.06,1.117,6.299,1.742,9.559,1.717c6.342-0.049,12.593-2.025,18.752-3.349c5.022-1.079,10.397-2.154,15.517-1.117
						c2.137,0.433,5.258,1.327,6.03,3.547c-12.989,2.354-18.09,18.417-14.428,30.21c1.976,6.364,13.856,13.805,18.475,10.459
						c2.926-2.12,1.15-4.903,0-6.74c-2.202-3.518-2.955-8.037,1.119-10.487c3.514-2.112,7.209,2.904,7.279,2.898
						c0.966-0.076,9.312-4.796,15.062-11.684c5.673,0.336,6.534-3.404,5.179-6.463C80.892,126.352,72.438,122.503,67.88,121.755z"/>
				</g>
				<g id="Bottom_x2F_Standing_x2F_Sweatpants" transform="translate(0.000000, 203.685999)">
					<polygon id="Leg" fill="#794A32" points="130.964,93.89 169.167,225.532 187.135,324.37 205.169,324.37 187.167,93.89 					"/>
					<path id="Leg_1_" fill="#925C3D" d="M113.796,93.89c2.666,68.387,1.614,105.687,1.018,111.899
						c-0.597,6.214-3.983,47.826-27.063,120.666h18.758c30.565-69.877,41.235-111.49,44.741-120.666s13.859-46.475,28.975-111.899
						H113.796z"/>
					<path id="Pant" fill="#69A1AC" d="M130.144,93.89c9.937,45.298,27.124,117.604,51.56,216.922h26.378
						c1.948-101.938-6.339-169.032-20.692-216.922H130.144z"/>
					<path id="Pant_1_" fill="#C5CFD6" d="M113.663,93.89c2.61,68.387-4.155,135.761-25.112,217.986h28.144
						C147.315,243.042,169.263,176,184.263,93.89H113.663z"/>
					<g id="Accessories_x2F_Shoe_x2F_Flat-Simple" transform="translate(87.603226, 207.536214)">
						<path id="Shoe" fill="#191947" d="M-2.527,132.477l1.035-16.687c6.06,1.772,13.65,1.077,22.77-2.086
							c9.806,6.946,22.151,11.689,37.035,14.229l0,0c1.136,0.194,1.899,1.271,1.705,2.407c-0.012,0.073-0.029,0.146-0.049,0.218
							l-1.431,5.047h-37.26H-0.456L-2.527,132.477z"/>
					</g>
					<g id="Accessories_x2F_Shoe_x2F_Flat-Simple_1_" transform="translate(185.635407, 207.536214)">
						<path id="Shoe_1_" fill="#191947" d="M-2.527,132.477l1.035-16.687c6.061,1.772,13.65,1.077,22.771-2.086
							c9.806,6.946,22.151,11.689,37.034,14.229l0,0c1.137,0.194,1.899,1.271,1.705,2.407c-0.012,0.073-0.028,0.146-0.049,0.218
							l-1.431,5.047h-37.26H-0.457L-2.527,132.477z"/>
					</g>
				</g>
				
					<g id="Body_x2F_Hoodie_1_" transform="translate(155.249818, 192.734499) rotate(-10.000000) translate(-155.249818, -192.734499) translate(21.880847, 95.214000)">
					<path id="Skin_1_" fill="#925C3D" d="M180.173,188.191l33.266,24.429c9.023,2.434,16.561,5.463,22.614,9.086
						c1.43,1.303,3.158,3.942-2.772,3.486c-5.93-0.456-12.189-0.669-13.007,1.354c-0.818,2.023,2.771,4.442,1.116,7.172
						c-1.102,1.819-6.313-2.743-15.629-13.688l-32.942-13.66L180.173,188.191z M52.446,189.034l21.794,0.087
						c-13.457,43.439-20.721,66.489-21.793,69.147c-2.414,5.98,2.693,15.089,4.877,19.983c-7.112,3.182-6.355-8.603-15.327-4.43
						c-8.189,3.81-14.419,10.714-23.881,4.875c-1.163-0.718-2.438-3.42,0.642-5.532c7.673-5.261,18.731-14.47,20.225-17.501
						C41.02,251.53,45.508,229.32,52.446,189.034z"/>
					<path id="Coat-Back_1_" fill="#3C4CA0" d="M114.381,97.585l9.018-1.547c33.459,28.904,47.203,84.433,88.216,113.848
						l-9.872,12.236C130.593,213.314,112.957,145.582,114.381,97.585z"/>
					<path id="Shirt_1_" fill="#DDE3E9" d="M75.069,210.915c36.159,0,62.757-0.001,79.794,0c3.646,0,2.959-5.265,2.432-7.922
						c-6.083-30.662-29.829-63.713-29.829-107.36l-23.016-3.609C85.412,122.642,78.829,160.339,75.069,210.915z"/>
					<path id="Coat-Front_1_" fill="#465CAA" d="M75.71,122.12c-3.343-0.961-5.99-3.202-7.941-6.723
						c-8.413-15.18-5.374-23.537,3.616-26.284c8.99-2.747,17.008,2.912,31.332,2.912c0.779,0,1.493,0.049,2.14,0.146l7.206,0.411
						c20.672,70.061,26.373,116.806,17.104,140.233l-62.804,0c-3.721,8.677-7.282,15.977-10.682,21.901l-17.113,0.001
						C36.957,202.641,49.338,158.443,75.71,122.12z"/>
					<path id="Shade_1_" fill="#010101" fill-opacity="0.1" d="M80.039,196.833c1.975,16.527,5.185,28.52,9.631,35.983l-23.307,0
						C70.703,222.694,75.262,210.7,80.039,196.833z"/>
				</g>
			</g>
		</g>
	</g>
</g>
</svg>
