<?xml version="1.0" encoding="utf-8"?>
<!-- Generator: Adobe Illustrator 16.0.0, SVG Export Plug-In . SVG Version: 6.00 Build 0)  -->
<!DOCTYPE svg PUBLIC "-//W3C//DTD SVG 1.1//EN" "http://www.w3.org/Graphics/SVG/1.1/DTD/svg11.dtd">
<svg version="1.1"
	 id="Layer_1" xmlns:dc="http://purl.org/dc/elements/1.1/" xmlns:cc="http://creativecommons.org/ns#" xmlns:rdf="http://www.w3.org/1999/02/22-rdf-syntax-ns#" xmlns:svg="http://www.w3.org/2000/svg" xmlns:sodipodi="http://sodipodi.sourceforge.net/DTD/sodipodi-0.dtd" xmlns:inkscape="http://www.inkscape.org/namespaces/inkscape"
	 xmlns="http://www.w3.org/2000/svg" xmlns:xlink="http://www.w3.org/1999/xlink" x="0px" y="0px" width="245.759px"
	 height="155.648px" viewBox="133.121 126.976 245.759 155.648" enable-background="new 133.121 126.976 245.759 155.648"
	 xml:space="preserve">
<g transform="translate(0,-952.36218)">
	<path d="M378.88,1157.162c0-1.896-1.146-4.413-2.31-5.634l-65.535-69.633c-3.06-3.163-8.017-3.53-11.584-0.319
		c-3.189,2.87-3.269,8.468-0.319,11.584l52.606,55.81H141.312c-4.524,0-8.192,3.667-8.192,8.192s3.667,8.192,8.192,8.192h210.426
		l-52.606,55.808c-2.948,3.117-2.739,8.576,0.319,11.584c3.23,3.176,8.571,2.893,11.584-0.318l65.535-69.633
		C378.495,1160.905,378.848,1159.086,378.88,1157.162L378.88,1157.162z"/>
</g>
</svg>
